<svg height="512pt" viewBox="0 -16 512 512" width="512pt" xmlns="http://www.w3.org/2000/svg"><path d="m391 210c0 16.5-13.5 30-30 30l-75 29.398438-1.199219.601562-73.800781-30v-60h150c16.5 0 30 13.5 30 30zm0 0" fill="#ff4b00"/><path d="m361 240-75 29.398438v-89.398438h75c16.5 0 30 13.5 30 30s-13.5 30-30 30zm0 0" fill="#dd3400"/><path d="m438.359375 295.015625c8.0625 14.863281 12.640625 31.886719 12.640625 49.984375v62.101562c-19.199219 11.996094-44.398438 25.496094-75 36.597657v-8.699219c0-47.402344-31.800781-87.300781-75-100.199219-4.800781-1.5-9.902344-28.800781-15-33-.300781-.300781-.601562-.601562-.902344-.601562-4.496094-.898438-9.296875 28.800781-14.097656 28.800781-5.097656 0-10.199219.300781-15 1.199219-50.699219 7.199219-90 51-90 103.800781v19.199219c-29.398438-7.5-54.601562-17.699219-75-28.5v-35.398438c0-37.5 12.898438-75.902343 38.101562-114.300781 7.566407-11.511719 13.230469-23.929688 16.898438-36.871094-45.488281 5.25-85-29.5-85-74.128906v-75h-39.300781l10.800781-21.601562c21-42.296876 63.597656-68.398438 110.699219-68.398438 49.199219 0 91.5 27 112.800781 67.5 9 16.800781 14.398438 36 15 56.398438-.601562 18.902343-3.898438 36.300781-10.199219 53.101562-5.703125 15.300781-3.898437 32.097656 5.097657 44.699219 1.5 2.101562 3.300781 4.199219 5.101562 6 4.199219 4.199219 9.300781 33.902343 15 39 .601562.601562.898438.902343 1.199219.902343h.296875c4.203125 0 8.703125-27.601562 13.5-27.601562h45c39.898437 0 74.59375 22.246094 92.363281 55.015625zm0 0" fill="#99503d"/><path d="m151 134.324219c0 16.019531-8.625 30.957031-22.511719 38.992187l-7.488281 4.332032v24.730468c0 11.726563-2.003906 23.246094-5.855469 34.148438 9.59375 2.824218 19.957031 3.828125 30.652344 2.621094 3.429687-11.875 5.203125-24.230469 5.203125-36.769532v-8.054687c18.695312-14.0625 30-36.320313 30-60v-15h-30zm0 0" fill="#804231"/><path d="m451 345v62.101562c-19.199219 11.996094-44.398438 25.496094-75 36.597657v-8.699219c0-47.402344-31.800781-87.300781-75-100.199219-4.800781-1.5-9.902344-28.800781-15-33v-35.101562c.601562.601562.902344.898437 1.199219.898437h.300781c4.199219 0 8.699219-27.597656 13.5-27.597656h45c57.898438 0 105 47.101562 105 105zm0 0" fill="#804231"/><path d="m301 240v94.800781c-4.800781-1.5-9.902344-2.699219-15-3.300781-4.800781-.902344-9.902344-1.5-15-1.5v-102.300781c4.199219 4.199219 9.300781 7.5 15 9.300781 4.5 2.097656 9.601562 3 15 3zm0 0" fill="#68544f"/><path d="m301 240v94.800781c-4.800781-1.5-9.902344-2.699219-15-3.300781v-94.503906c4.5 2.101562 9.601562 3.003906 15 3.003906zm0 0" fill="#53433f"/><path d="m512 387c-19.199219 10.5-89.199219 82.5-226 91.800781-9.601562.898438-19.5 1.199219-30 1.199219-148.5 0-244.300781-86.398438-256-93l18-24c18 9.898438 93.097656 87 238 87 10.199219 0 20.398438-.601562 30-1.5 120-10.199219 197.5-79.800781 208-85.5zm0 0" fill="#68544f"/><path d="m512 387c-19.199219 10.5-89.199219 82.5-226 91.800781v-30.300781c120-10.199219 197.5-79.800781 208-85.5zm0 0" fill="#53433f"/></svg>