<svg height="511pt" viewBox="0 0 511.99716 511" width="511pt" xmlns="http://www.w3.org/2000/svg"><path d="m127.71875 320.695312c-4.59375 10.332032-16.695312 14.988282-27.027344 10.398438-10.335937-4.59375-14.992187-16.695312-10.398437-27.03125l-6.835938 15.382812c-4.589843 10.332032-16.691406 14.988282-27.027343 10.394532-10.335938-4.589844-14.988282-16.691406-10.398438-27.027344l-6.832031 15.378906c-4.59375 10.335938-16.695313 14.992188-27.03125 10.398438-10.335938-4.589844-14.992188-16.691406-10.398438-27.027344 46.292969-104.171875 98.03125-89.355469 150.898438-37.007812l13.082031 36.8125zm0 0" fill="#c9d8ed"/><path d="m384.28125 320.695312c4.589844 10.332032 16.691406 14.988282 27.027344 10.398438 10.335937-4.59375 14.992187-16.695312 10.398437-27.03125l6.832031 15.382812c4.59375 10.332032 16.695313 14.988282 27.03125 10.394532 10.332032-4.589844 14.988282-16.691406 10.398438-27.027344l6.832031 15.378906c4.59375 10.335938 16.695313 14.992188 27.027344 10.398438 10.335937-4.589844 14.992187-16.691406 10.398437-27.027344-46.289062-104.175781-98.027343-89.355469-150.894531-37.007812l-13.085937 36.808593zm0 0" fill="#c9d8ed"/><path d="m148.054688 287.855469c13.757812-19.480469 23.714843-32.355469 23.714843-32.355469h168.460938s9.957031 12.875 23.714843 32.355469c34.335938-30.082031 56.054688-74.226563 56.054688-123.355469 0-90.429688-73.570312-164-164-164s-164 73.570312-164 164c0 49.128906 21.71875 93.273438 56.054688 123.355469zm0 0" fill="#b8786c"/><path d="m112.605469 164.5c0-86.96875 68.046875-158.332031 153.695312-163.667969-3.40625-.210937-6.839843-.332031-10.300781-.332031-90.429688 0-164 73.570312-164 164 0 49.128906 21.71875 93.273438 56.054688 123.355469 3.019531-4.277344 5.859374-8.234375 8.445312-11.808594-27.222656-29.285156-43.894531-68.503906-43.894531-111.546875zm0 0" fill="#914b3b"/><path d="m87.777344 385.359375c-5.105469 10.183594-9.550782 20.121094-12.957032 29.425781-2.734374 7.460938-1.148437 15.796875 4.019532 21.832032 19.304687 22.53125 75.136718 74.882812 177.160156 74.882812 102.019531 0 157.851562-52.351562 177.15625-74.882812 5.167969-6.035157 6.753906-14.371094 4.023438-21.832032-3.410157-9.304687-7.855469-19.242187-12.960938-29.425781zm0 0" fill="#fee970"/><path d="m424.21875 385.359375c-25 27.769531-78.910156 72.140625-168.21875 72.140625-89.3125 0-143.21875-44.371094-168.222656-72.140625 30.300781-60.449219 83.992187-129.859375 83.992187-129.859375h168.460938s53.6875 69.410156 83.988281 129.859375zm0 0" fill="#e6e9ed"/><path d="m80.65625 438.699219c5.753906 6.503906 12.027344 12.574219 18.617188 18.226562-.089844-2.730469.328124-5.492187 1.300781-8.144531 3.410156-9.304688 13.003906-32.632812 18.109375-42.820312 3.40625-6.789063 7.105468-13.695313 10.992187-20.601563h-41.898437c-4.800782 9.582031-9.269532 19.359375-12.957032 29.425781-3.214843 8.773438-.054687 17.257813 5.835938 23.914063zm0 0" fill="#f59f49"/><path d="m116.046875 411.5c.957031-2.089844 1.851563-3.96875 2.636719-5.539062 30.300781-60.449219 83.992187-129.859376 83.992187-129.859376h39.542969c-9.222656-12.734374-15.308594-20.601562-15.308594-20.601562h-55.140625s-7.550781 9.761719-18.585937 25.148438c-23.941406 33.382812-46.96875 67.929687-65.40625 104.710937 7.066406 7.847656 16.441406 17.019531 28.269531 26.140625zm0 0" fill="#ccd1d9"/><path d="m379.796875 160.058594c-2.113281-25.078125-19.421875-46.238282-43.339844-54.0625-41.179687-13.472656-63.402343-38.539063-73.511719-53.449219-3.34375-4.933594-10.640624-4.972656-14.035156-.074219-10.238281 14.777344-32.5625 39.613282-73.292968 53.183594-24.523438 8.171875-42.109376 30.085938-43.53125 55.894531-.058594 1.015625-.085938 2-.085938 2.949219 0 68.480469 55.515625 124 124 124s124-55.519531 124-124c0-1.402344-.070312-2.890625-.203125-4.441406zm0 0" fill="#f1caa9"/><path d="m322.230469 168.464844c-4.269531 0-7.726563-3.460938-7.726563-7.726563v-12.878906c0-4.265625 3.457032-7.726563 7.726563-7.726563 4.265625 0 7.726562 3.460938 7.726562 7.726563v12.878906c0 4.265625-3.460937 7.726563-7.726562 7.726563zm0 0" fill="#434a53"/><path d="m331 187.390625h-17.539062c-4.269532 0-7.726563-3.460937-7.726563-7.726563 0-4.265624 3.457031-7.726562 7.726563-7.726562h17.539062c4.265625 0 7.726562 3.460938 7.726562 7.726562 0 4.265626-3.460937 7.726563-7.726562 7.726563zm0 0" fill="#e394a5"/><path d="m189.769531 168.464844c-4.265625 0-7.726562-3.460938-7.726562-7.726563v-12.878906c0-4.265625 3.460937-7.726563 7.726562-7.726563 4.269531 0 7.726563 3.460938 7.726563 7.726563v12.878906c0 4.265625-3.457032 7.726563-7.726563 7.726563zm0 0" fill="#434a53"/><path d="m198.539062 187.390625h-17.539062c-4.269531 0-7.726562-3.460937-7.726562-7.726563 0-4.265624 3.457031-7.726562 7.726562-7.726562h17.539062c4.269532 0 7.726563 3.460938 7.726563 7.726562 0 4.265626-3.457031 7.726563-7.726563 7.726563zm0 0" fill="#e394a5"/><path d="m256 186.664062c-6.847656 0-13.285156-2.875-17.664062-7.882812-2.808594-3.210938-2.480469-8.09375.734374-10.902344 3.210938-2.808594 8.09375-2.480468 10.902344.734375 1.441406 1.652344 3.640625 2.597657 6.027344 2.597657s4.582031-.949219 6.027344-2.597657c2.808594-3.214843 7.691406-3.542969 10.902344-.734375 3.214843 2.808594 3.542968 7.691406.734374 10.902344-4.378906 5.007812-10.820312 7.882812-17.664062 7.882812zm0 0" fill="#434a53"/><path d="m256 288.5-.320312.40625c-2.015626-9.589844-13.117188-14.929688-22.0625-9.617188-15.882813 9.429688-25.617188 26.53125-25.617188 45.003907 0 19.996093 16.210938 36.207031 36.207031 36.207031 6.511719 0 11.792969-5.28125 11.792969-11.796875l24-29.859375zm0 0" fill="#e6ba96"/><path d="m278.382812 279.289062c-9.878906-5.867187-22.382812 1.253907-22.382812 12.742188v56.675781c0 6.511719 5.277344 11.792969 11.792969 11.792969 19.996093 0 36.207031-16.210938 36.207031-36.207031 0-18.472657-9.738281-35.574219-25.617188-45.003907zm0 0" fill="#d9af8d"/></svg>