<?xml version="1.0" encoding="iso-8859-1"?>
<!-- Generator: Adobe Illustrator 19.0.0, SVG Export Plug-In . SVG Version: 6.00 Build 0)  -->
<svg version="1.1" id="Capa_1" xmlns="http://www.w3.org/2000/svg" xmlns:xlink="http://www.w3.org/1999/xlink" x="0px" y="0px"
	 viewBox="0 0 512 512" style="enable-background:new 0 0 512 512;" xml:space="preserve">
<path style="fill:#444444;" d="M467,241c-3.838,0-7.676-1.465-10.605-4.395l-60-60c-5.859-5.859-5.859-15.352,0-21.211
	s15.352-5.859,21.211,0l60,60c5.859,5.859,5.859,15.352,0,21.211C474.676,239.535,470.838,241,467,241z"/>
<path style="fill:#E10000;" d="M347,241c-3.838,0-7.676-1.465-10.605-4.395c-5.859-5.859-5.859-15.352,0-21.211l120-120
	c5.859-5.859,15.352-5.859,21.211,0s5.859,15.352,0,21.211l-120,120C354.676,239.535,350.838,241,347,241z"/>
<path style="fill:#F40000;" d="M337.099,125.2c-4.799-20.101-22.8-34.2-43.5-34.2H159.401c-20.7,0-38.701,14.099-43.5,34.2
	l-36,143.099c-0.901,4.501,0,9.3,2.699,12.902c3.001,3.6,7.202,5.7,12.001,5.7h263.8c4.799,0,9-2.1,12.001-5.7
	c2.699-3.602,3.6-8.401,2.699-12.902L337.099,125.2z"/>
<path style="fill:#E10000;" d="M373.1,268.299c0.901,4.501,0,9.3-2.699,12.902c-3.001,3.6-7.202,5.7-12.001,5.7H226V91h67.599
	c20.7,0,38.701,14.099,43.5,34.2L373.1,268.299z"/>
<path style="fill:#E7E7E7;" d="M308,132.4c-1.5-6.601-7.5-11.4-14.401-11.4H159.401c-6.901,0-12.902,4.799-14.401,11.4
	l-31.2,124.501h225.4L308,132.4z"/>
<path style="fill:#D3D3D8;" d="M339.2,256.901H226V121h67.599c6.901,0,12.902,4.799,14.401,11.4L339.2,256.901z"/>
<path style="fill:#F40000;" d="M241,106v120c0,8.401-6.599,15-15,15s-15-6.599-15-15V106c0-8.401,6.599-15,15-15S241,97.599,241,106
	z"/>
<path style="fill:#E10000;" d="M241,106v120c0,8.401-6.599,15-15,15V91C234.401,91,241,97.599,241,106z"/>
<path style="fill:#FF3636;" d="M512,271l-30,15l30,15v15c0,24.901-20.099,45-45,45H45c-24.901,0-45-20.099-45-45v-15l30-15L0,271
	v-15c0-24.901,20.099-45,45-45h422c24.901,0,45,20.099,45,45V271z"/>
<path style="fill:#F40000;" d="M512,271l-30,15l30,15v15c0,24.901-20.099,45-45,45H226V211h241c24.901,0,45,20.099,45,45V271z"/>
<g>
	<path style="fill:#5A5A5A;" d="M272,286c0,8.401-7.599,15-16,15h-30c-8.401,0-15-6.599-15-15s6.599-15,15-15h30
		C264.401,271,272,277.599,272,286z"/>
	<path style="fill:#5A5A5A;" d="M121,301c-32.999,0-60,27.001-60,60s27.001,60,60,60s60-27.001,60-60S153.999,301,121,301z"/>
</g>
<path style="fill:#E7E7E7;" d="M121,331c-16.5,0-30,13.5-30,30s13.5,30,30,30s30-13.5,30-30S137.5,331,121,331z"/>
<path style="fill:#444444;" d="M392,301c-32.999,0-60,27.001-60,60s27.001,60,60,60s60-27.001,60-60S424.999,301,392,301z"/>
<path style="fill:#D3D3D8;" d="M392,331c-16.5,0-30,13.5-30,30s13.5,30,30,30s30-13.5,30-30S408.5,331,392,331z"/>
<path style="fill:#FF9F00;" d="M61,286c0-8.291-7.709-15-16-15H0v30h45C53.291,301,61,294.291,61,286z"/>
<path style="fill:#FF7816;" d="M467,271c-8.291,0-15,6.709-15,15s6.709,15,15,15h45v-30H467z"/>
<path style="fill:#444444;" d="M272,286c0,8.401-7.599,15-16,15h-30v-30h30C264.401,271,272,277.599,272,286z"/>
<g>
</g>
<g>
</g>
<g>
</g>
<g>
</g>
<g>
</g>
<g>
</g>
<g>
</g>
<g>
</g>
<g>
</g>
<g>
</g>
<g>
</g>
<g>
</g>
<g>
</g>
<g>
</g>
<g>
</g>
</svg>
