<svg xmlns="http://www.w3.org/2000/svg" height="511pt" version="1.1" viewBox="-13 0 511 511.9995" width="511pt">
<g id="surface1">
<path d="M 385.050781 3.320312 C 382.144531 -1.351562 375.242188 -1.027344 372.75 3.878906 C 363.835938 21.449219 346.078125 44.160156 346.078125 44.160156 L 391.03125 76.128906 C 403.71875 42.355469 393.390625 16.707031 385.050781 3.320312 Z M 385.050781 3.320312 " style=" stroke:none;fill-rule:nonzero;fill:rgb(99.607843%,80.392157%,21.960784%);fill-opacity:1;" />
<path d="M 383.054688 14.179688 C 384.277344 11.765625 386.574219 10.46875 388.933594 10.320312 C 387.652344 7.710938 386.328125 5.371094 385.050781 3.320312 C 382.144531 -1.351562 375.242188 -1.027344 372.75 3.878906 C 363.835938 21.449219 346.078125 44.160156 346.078125 44.160156 L 357.859375 52.535156 C 362.292969 46.710938 375.6875 28.699219 383.054688 14.179688 Z M 383.054688 14.179688 " style=" stroke:none;fill-rule:nonzero;fill:rgb(97.254902%,63.921569%,24.313725%);fill-opacity:1;" />
<path d="M 101.125 3.320312 C 104.035156 -1.351562 110.9375 -1.027344 113.425781 3.878906 C 122.34375 21.449219 140.101562 44.160156 140.101562 44.160156 L 95.144531 76.128906 C 82.460938 42.355469 92.789062 16.707031 101.125 3.320312 Z M 101.125 3.320312 " style=" stroke:none;fill-rule:nonzero;fill:rgb(99.607843%,80.392157%,21.960784%);fill-opacity:1;" />
<path d="M 115.261719 7.347656 C 114.621094 6.175781 114.003906 5.015625 113.425781 3.878906 C 110.9375 -1.027344 104.03125 -1.351562 101.125 3.320312 C 92.789062 16.707031 82.460938 42.355469 95.144531 76.128906 L 108.578125 66.574219 C 101.707031 40.492188 108.378906 20.015625 115.261719 7.347656 Z M 115.261719 7.347656 " style=" stroke:none;fill-rule:nonzero;fill:rgb(97.254902%,63.921569%,24.313725%);fill-opacity:1;" />
<path d="M 27.644531 226.96875 L 27.636719 226.597656 L 27.644531 226.226562 C 28.457031 170.476562 51.3125 118.222656 91.992188 79.097656 C 132.539062 40.097656 186.199219 18.621094 243.089844 18.621094 C 299.976562 18.621094 353.640625 40.097656 394.1875 79.097656 C 434.867188 118.226562 457.71875 170.476562 458.535156 226.226562 L 458.542969 226.597656 L 458.535156 226.96875 Z M 27.644531 226.96875 " style=" stroke:none;fill-rule:nonzero;fill:rgb(22.745098%,28.235294%,29.019608%);fill-opacity:1;" />
<path d="M 68.851562 226.226562 C 69.667969 170.476562 92.519531 118.222656 133.199219 79.097656 C 168.8125 44.84375 214.542969 24.113281 263.691406 19.574219 C 256.882812 18.945312 250.011719 18.621094 243.089844 18.621094 C 186.199219 18.621094 132.539062 40.097656 91.992188 79.097656 C 51.3125 118.222656 28.457031 170.476562 27.644531 226.226562 L 27.636719 226.597656 L 27.644531 226.96875 L 68.851562 226.96875 L 68.84375 226.597656 Z M 68.851562 226.226562 " style=" stroke:none;fill-rule:nonzero;fill:rgb(19.607843%,24.313725%,25.098039%);fill-opacity:1;" />
<path d="M 311.820312 396.722656 L 174.359375 396.722656 C 174.359375 396.722656 109.011719 425.367188 109.011719 512 L 377.164062 512 C 377.164062 425.367188 311.820312 396.722656 311.820312 396.722656 Z M 311.820312 396.722656 " style=" stroke:none;fill-rule:nonzero;fill:rgb(100%,40%,40.784314%);fill-opacity:1;" />
<path d="M 243.089844 440.113281 C 277.488281 440.113281 310.738281 432.445312 340.761719 417.953125 C 325.761719 402.839844 311.820312 396.722656 311.820312 396.722656 L 174.359375 396.722656 C 174.359375 396.722656 160.417969 402.839844 145.417969 417.953125 C 175.4375 432.445312 208.6875 440.113281 243.089844 440.113281 Z M 243.089844 440.113281 " style=" stroke:none;fill-rule:nonzero;fill:rgb(100%,30.196078%,30.980392%);fill-opacity:1;" />
<path d="M 485.160156 194.820312 C 485.105469 191.074219 481.871094 188.175781 478.140625 188.53125 C 466.992188 189.597656 445.148438 194.578125 432.75 216.636719 L 419.613281 292.792969 C 493.132812 292.792969 485.875 245.675781 485.160156 194.820312 Z M 485.160156 194.820312 " style=" stroke:none;fill-rule:nonzero;fill:rgb(100%,30.196078%,30.980392%);fill-opacity:1;" />
<path d="M 243.089844 97.046875 C 154.707031 51.320312 54.492188 116.699219 53.007812 226.597656 C 54.488281 327.695312 139.015625 409.207031 243.089844 409.207031 C 347.164062 409.207031 431.6875 327.695312 433.167969 226.597656 C 431.6875 116.699219 331.46875 51.320312 243.089844 97.046875 Z M 243.089844 97.046875 " style=" stroke:none;fill-rule:nonzero;fill:rgb(100%,40%,40.784314%);fill-opacity:1;" />
<path d="M 83.914062 226.597656 C 84.984375 147.398438 137.328125 91.328125 199.570312 83.292969 C 127.496094 74.097656 59.417969 130.207031 53.429688 216.644531 L 53.429688 216.636719 C 41.027344 194.578125 19.183594 189.597656 8.035156 188.53125 C 4.304688 188.175781 1.070312 191.074219 1.019531 194.820312 C 0.300781 245.675781 -6.957031 292.792969 66.566406 292.792969 L 66.5625 292.773438 C 94.605469 361.007812 163.0625 409.207031 243.089844 409.207031 C 248.292969 409.207031 253.441406 408.992188 258.539062 408.59375 C 161.679688 401 85.320312 322.640625 83.914062 226.597656 Z M 83.914062 226.597656 " style=" stroke:none;fill-rule:nonzero;fill:rgb(100%,30.196078%,30.980392%);fill-opacity:1;" />
<path d="M 340.066406 512 L 340.066406 473.839844 C 340.066406 469.574219 336.605469 466.113281 332.339844 466.113281 C 328.070312 466.113281 324.613281 469.574219 324.613281 473.839844 L 324.613281 512 Z M 340.066406 512 " style=" stroke:none;fill-rule:nonzero;fill:rgb(100%,30.196078%,30.980392%);fill-opacity:1;" />
<path d="M 161.566406 512 L 161.566406 473.839844 C 161.566406 469.574219 158.109375 466.113281 153.839844 466.113281 C 149.570312 466.113281 146.113281 469.574219 146.113281 473.839844 L 146.113281 512 Z M 161.566406 512 " style=" stroke:none;fill-rule:nonzero;fill:rgb(100%,30.196078%,30.980392%);fill-opacity:1;" />
<path d="M 171.972656 237.644531 L 142.578125 227.695312 C 138.535156 226.324219 134.148438 228.492188 132.78125 232.535156 C 131.414062 236.578125 133.582031 240.964844 137.625 242.332031 L 146.25 245.25 L 146.25 261.089844 C 146.25 265.355469 149.710938 268.816406 153.976562 268.816406 C 158.246094 268.816406 161.703125 265.355469 161.703125 261.089844 L 161.703125 250.480469 L 167.015625 252.28125 C 167.839844 252.558594 168.671875 252.691406 169.496094 252.691406 C 172.714844 252.691406 175.722656 250.660156 176.8125 247.441406 C 178.179688 243.398438 176.011719 239.011719 171.972656 237.644531 Z M 171.972656 237.644531 " style=" stroke:none;fill-rule:nonzero;fill:rgb(22.745098%,28.235294%,29.019608%);fill-opacity:1;" />
<path d="M 319.160156 252.28125 L 324.472656 250.480469 L 324.472656 261.089844 C 324.472656 265.355469 327.933594 268.816406 332.199219 268.816406 C 336.46875 268.816406 339.925781 265.355469 339.925781 261.089844 L 339.925781 245.25 L 348.554688 242.332031 C 352.597656 240.964844 354.765625 236.578125 353.398438 232.535156 C 352.03125 228.492188 347.644531 226.324219 343.601562 227.695312 L 314.207031 237.644531 C 310.164062 239.011719 308 243.398438 309.367188 247.441406 C 310.457031 250.660156 313.460938 252.691406 316.683594 252.691406 C 317.503906 252.691406 318.339844 252.558594 319.160156 252.28125 Z M 319.160156 252.28125 " style=" stroke:none;fill-rule:nonzero;fill:rgb(22.745098%,28.235294%,29.019608%);fill-opacity:1;" />
<path d="M 348.300781 278.472656 L 323.695312 278.472656 C 319.429688 278.472656 315.96875 281.933594 315.96875 286.199219 C 315.96875 290.464844 319.429688 293.925781 323.695312 293.925781 L 348.300781 293.925781 C 352.570312 293.925781 356.027344 290.464844 356.027344 286.199219 C 356.027344 281.933594 352.570312 278.472656 348.300781 278.472656 Z M 348.300781 278.472656 " style=" stroke:none;fill-rule:nonzero;fill:rgb(97.647059%,50.196078%,51.764706%);fill-opacity:1;" />
<path d="M 162.484375 278.472656 L 137.875 278.472656 C 133.609375 278.472656 130.148438 281.933594 130.148438 286.199219 C 130.148438 290.464844 133.609375 293.925781 137.875 293.925781 L 162.484375 293.925781 C 166.75 293.925781 170.207031 290.464844 170.207031 286.199219 C 170.207031 281.933594 166.75 278.472656 162.484375 278.472656 Z M 162.484375 278.472656 " style=" stroke:none;fill-rule:nonzero;fill:rgb(97.647059%,50.196078%,51.764706%);fill-opacity:1;" />
<path d="M 264.789062 272.007812 C 261.578125 269.203125 256.699219 269.527344 253.890625 272.742188 C 251.273438 275.734375 247.335938 277.453125 243.089844 277.453125 C 238.839844 277.453125 234.90625 275.734375 232.289062 272.742188 C 229.480469 269.527344 224.597656 269.199219 221.386719 272.007812 C 218.175781 274.816406 217.84375 279.699219 220.65625 282.910156 C 226.207031 289.261719 234.382812 292.90625 243.089844 292.90625 C 251.796875 292.90625 259.972656 289.261719 265.523438 282.910156 C 268.332031 279.699219 268.003906 274.816406 264.789062 272.007812 Z M 264.789062 272.007812 " style=" stroke:none;fill-rule:nonzero;fill:rgb(22.745098%,28.235294%,29.019608%);fill-opacity:1;" />
<path d="M 248.742188 390.777344 C 246.261719 386.324219 239.917969 386.324219 237.4375 390.777344 C 233.394531 398.027344 226.984375 405.785156 217.578125 407.546875 L 237.191406 440.257812 C 239.863281 444.714844 246.316406 444.714844 248.988281 440.261719 C 256.523438 427.691406 268.601562 407.546875 268.601562 407.546875 C 259.195312 405.785156 252.785156 398.027344 248.742188 390.777344 Z M 248.742188 390.777344 " style=" stroke:none;fill-rule:nonzero;fill:rgb(22.745098%,28.235294%,29.019608%);fill-opacity:1;" />
</g>
</svg>