<svg height="511pt" viewBox="-67 1 511 511.99999" width="511pt" xmlns="http://www.w3.org/2000/svg"><path d="m322.929688 295.167969v43.492187l-8.039063 25.152344-47.332031 148.1875h-156.503906l-47.332032-148.1875-8.039062-25.152344 4.265625-43.492187zm0 0" fill="#ffc45a"/><path d="m128.433594 295.167969h-68.484375l-4.265625 43.492187 7.023437 21.972656 48.351563 151.367188h41.429687l-18.210937-121.148438c-2.140625-14.234374 8.882812-27.039062 23.277344-27.039062h157.335937l8.039063-25.152344v-43.492187zm0 0" fill="#ff9227"/><path d="m361.730469 172.417969c0 24.648437-5.167969 48.085937-14.496094 69.296875h-315.84375c-9.328125-21.210938-14.496094-44.648438-14.496094-69.296875 0-95.226563 77.191407-172.417969 172.417969-172.417969 30.214844 0 58.617188 7.777344 83.3125 21.433594-.042969 1.121094-.054688 2.253906-.054688 3.382812 0 54.855469 36.378907 101.222656 86.320313 116.292969 1.863281 10.148437 2.839844 20.617187 2.839844 31.308594zm0 0" fill="#f96eb3"/><path d="m84.441406 172.417969c0 48.863281 23.21875 69.296875 23.21875 69.296875h-76.269531c-9.328125-21.210938-14.496094-44.648438-14.496094-69.296875 0-94.839844 76.574219-171.800781 171.265625-172.4062502-48.703125 1.1953122-103.71875 59.3554692-103.71875 172.4062502zm0 0" fill="#d83a6f"/><path d="m215.691406 178.273438c-16.996094 6.390624-35.769531 6.390624-52.761718 0-7.816407-2.9375-16.613282-.027344-20.976563 7.089843-.058594.101563-.121094.199219-.179687.296875-5.617188 9.164063-1.644532 21.292969 8.398437 25.121094 25.1875 9.601562 53.085937 9.601562 78.273437 0 10.042969-3.828125 14.015626-15.957031 8.398438-25.121094-.058594-.097656-.121094-.195312-.179688-.296875-4.363281-7.117187-13.160156-10.027343-20.972656-7.089843zm0 0" fill="#d83a6f"/><path d="m334.234375 338.65625h-289.851563c-15.027343 0-27.210937-12.179688-27.210937-27.207031v-69.730469h344.273437v69.730469c0 15.027343-12.183593 27.207031-27.210937 27.207031zm0 0" fill="#ffc45a"/><path d="m123.152344 338.660156h-78.773438c-15.027344 0-27.207031-12.1875-27.207031-27.21875v-69.726562h78.773437v69.726562c0 15.03125 12.179688 27.21875 27.207032 27.21875zm0 0" fill="#ff9227"/><path d="m370.257812 249.578125h-361.898437c-4.339844 0-7.859375-3.519531-7.859375-7.859375s3.519531-7.859375 7.859375-7.859375h361.898437c4.339844 0 7.859376 3.519531 7.859376 7.859375s-3.519532 7.859375-7.859376 7.859375zm0 0" fill="#ff9227"/><path d="m252.828125 107.691406c0 17.945313-7.441406 34.15625-19.421875 45.714844-11.421875-11.035156-26.972656-17.824219-44.105469-17.824219-17.132812 0-32.679687 6.789063-44.101562 17.824219-11.96875-11.554688-19.410157-27.769531-19.410157-45.714844 0-35.089844 28.4375-63.523437 63.511719-63.523437 35.089844 0 63.527344 28.433593 63.527344 63.523437zm0 0" fill="#fff"/><path d="m208.171875 102.332031c0 10.417969-8.445313 18.863281-18.863281 18.863281-10.417969 0-18.863282-8.445312-18.863282-18.863281s8.445313-18.863281 18.863282-18.863281c10.417968 0 18.863281 8.445312 18.863281 18.863281zm0 0" fill="#2a2d49"/></svg>