<svg height="512pt" viewBox="0 0 512 512.00041" width="512pt" xmlns="http://www.w3.org/2000/svg"><path d="m359.210938 287.957031-55.210938 135.628907c-52.207031 94.519531-176.132812 121.226562-256.550781 40.808593-79.816407-79.816406-53.710938-204.339843 39.308593-255.949219l139.828126-56.714843 52.210937 81.320312zm0 0" fill="#68544f"/><path d="m359.210938 287.957031-55.210938 135.628907c-52.207031 94.519531-176.132812 121.226562-256.550781 40.808593l231.347656-231.347656zm0 0" fill="#3e322e"/><path d="m197.503906 355.628906-54.078125 14.488282-19.414062 72.464843 14.492187 3.882813c8.921875 2.390625 17.992188 3.546875 27.015625 3.546875 27.53125 0 54.488281-10.8125 74.429688-30.707031l10.621093-10.625zm0 0" fill="#678d12"/><path d="m102.035156 260.160156-10.605468 10.578125c-12.996094 12.964844-22.402344 29.257813-27.195313 47.117188-4.777344 17.84375-4.777344 36.65625 0 54.371093l3.910156 14.460938 72.4375-19.414062 14.492188-54.078126zm0 0" fill="#93bf00"/><path d="m270.992188 332.367188-72.3125 19.503906-39.609376-39.609375 19.207032-72.613281 14.703125 3.902343c18.300781 4.800781 34.804687 14.703125 47.410156 27.90625 12.601563 12.601563 21.902344 28.503907 26.703125 46.207031zm0 0" fill="#93bf00"/><path d="m267.09375 317.664062 3.898438 14.707032-72.3125 19.5-19.203126-19.203125 60.914063-61.210938c12.601563 12.601563 21.902344 28.503907 26.703125 46.207031zm0 0" fill="#678d12"/><path d="m204.679688 322.464844c-1.796876-3.300782-4.199219-6.300782-6.601563-8.699219-5.398437-6-12.601563-9.902344-20.703125-12.304687-11.703125-3-23.703125-1.5-34.207031 4.503906-10.503907 6-17.703125 15.902344-21.003907 27.304687-4.199218 16.199219.898438 33.007813 12.300782 44.109375v.296875c5.402344 4.800781 12.003906 8.703125 19.507812 10.804688 3.898438 1.199219 7.800782 1.5 11.699219 1.5 7.800781 0 15.605469-2.101563 22.507813-6 10.5-6.003907 18-15.605469 21-27.304688 3.003906-11.703125 1.503906-23.707031-4.5-34.210937zm0 0" fill="#68544f"/><path d="m209.179688 356.671875c-2.996094 11.703125-10.5 21.304687-21 27.304687-6.902344 3.902344-14.707032 6.003907-22.507813 6.003907-3.898437 0-7.800781-.300781-11.699219-1.5-7.503906-2.101563-14.105468-6.003907-19.507812-10.804688v-.296875l63.613281-63.613281c2.402344 2.398437 4.804687 5.398437 6.601563 8.699219 6.003906 10.503906 7.503906 22.507812 4.5 34.207031zm0 0" fill="#3e322e"/><path d="m165.671875 359.972656c-2.160156 0-2.832031-.160156-2.902344-.179687l-.359375-.109375-.347656-.097656c-2.261719-.632813-4.207031-1.71875-5.738281-2.804688l-.925781-.902344c-3.890626-3.789062-5.515626-9.386718-4.28125-14.691406.933593-2.984375 2.882812-6.855469 6.9375-9.167969 2.378906-1.363281 4.933593-2.050781 7.585937-2.050781 1.230469 0 2.5.144531 3.78125.4375 2.953125.9375 5.199219 2.144531 6.355469 3.433594l.53125.589844.5625.5625c.699218.699218 1.25 1.445312 1.46875 1.84375l.289062.519531c2.074219 3.628906 2.574219 7.621093 1.488282 11.863281-.953126 3.714844-3.226563 6.632812-6.761719 8.671875-2.402344 1.34375-5.128907 2.082031-7.683594 2.082031zm0 0" fill="#93bf00"/><path d="m156.324219 356.78125c1.53125 1.085938 3.476562 2.171875 5.738281 2.804688l.347656.097656.359375.109375c.070313.019531.742188.179687 2.902344.179687 2.554687 0 5.28125-.738281 7.679687-2.082031 3.535157-2.039063 5.8125-4.957031 6.765626-8.671875 1.085937-4.242188.585937-8.234375-1.488282-11.863281l-.289062-.519531c-.21875-.398438-.769532-1.144532-1.46875-1.84375l-.011719-.007813-21.175781 21.175781zm0 0" fill="#678d12"/><path d="m406.523438 174.636719-47.3125 113.320312-110.421876-24.902343-22.203124-111.324219 120.222656-50.308594 28.507812 35.105469zm0 0" fill="#93bf00"/><path d="m406.523438 174.636719-47.3125 113.320312-110.421876-24.902343 126.527344-126.527344zm0 0" fill="#678d12"/><path d="m438.929688 93.917969-113.722657 113.722656-10.503906-10.5-10.800781-10.503906 113.722656-113.722657 10.800781 10.503907zm0 0" fill="#68544f"/><path d="m314.699219 197.140625 113.722656-113.722656 10.503906 10.503906-113.722656 113.722656zm0 0" fill="#3e322e"/><path d="m511.84375 148.53125-86.117188 86.117188-123.925781-24.605469-24.605469-123.925781 86.117188-86.117188 24.605469 123.925781zm0 0" fill="#68544f"/><path d="m511.84375 148.53125-86.117188 86.117188-123.925781-24.605469 86.117188-86.117188zm0 0" fill="#3e322e"/></svg>