<svg height="511pt" viewBox="0 1 511 511.99982" width="511pt" xmlns="http://www.w3.org/2000/svg"><path d="m422.128906.847656c-6.011718-2.113281-12.699218-.191406-16.675781 4.785156l-32.664063 40.828126c-30.449218-30.089844-71.097656-46.460938-116.289062-46.460938-45.195312 0-85.84375 16.367188-116.292969 46.460938l-32.664062-40.828126c-3.976563-4.976562-10.664063-6.890624-16.675781-4.785156-6.011719 2.109375-10.035157 7.785156-10.035157 14.152344v200.832031c0 34.234375 8.902344 71.070313 26.460938 109.480469 13.789062 30.160156 32.945312 61.421875 56.941406 92.914062 40.617187 53.308594 80.699219 88.585938 82.386719 90.0625 2.828125 2.472657 6.351562 3.710938 9.878906 3.710938 3.523438 0 7.046875-1.238281 9.875-3.710938 1.6875-1.476562 41.773438-36.753906 82.386719-90.0625 23.996093-31.492187 43.152343-62.753906 56.941406-92.914062 17.558594-38.410156 26.460937-75.246094 26.460937-109.480469v-200.832031c0-6.367188-4.023437-12.042969-10.035156-14.152344zm0 0" fill="#b62900"/><path d="m422.128906.847656c-6.011718-2.113281-12.699218-.191406-16.675781 4.785156l-32.664063 40.828126c-30.449218-30.089844-71.097656-46.460938-116.289062-46.460938v512c3.523438 0 7.046875-1.238281 9.875-3.710938 1.6875-1.476562 41.773438-36.753906 82.386719-90.0625 23.996093-31.492187 43.152343-62.753906 56.941406-92.914062 17.558594-38.410156 26.460937-75.246094 26.460937-109.480469v-200.832031c0-6.367188-4.023437-12.042969-10.035156-14.152344zm0 0" fill="#552003"/><path d="m497.496094 431.667969h-481.996094c-8.285156 0-15-6.71875-15-15 0-8.285157 6.714844-15 15-15h481.996094c8.285156 0 15 6.714843 15 15 0 8.28125-6.714844 15-15 15zm0 0" fill="#ff641a"/><path d="m176.164062 150.5c-36.023437 0-65.332031 29.308594-65.332031 65.332031 0 36.027344 29.308594 65.335938 65.332031 65.335938 36.027344 0 65.335938-29.308594 65.335938-65.335938 0-36.023437-29.308594-65.332031-65.335938-65.332031zm0 0" fill="#fff4f4"/><path d="m336.832031 150.5c-36.023437 0-65.332031 29.308594-65.332031 65.332031 0 36.027344 29.308594 65.335938 65.332031 65.335938 36.023438 0 65.332031-29.308594 65.332031-65.335938 0-36.023437-29.308593-65.332031-65.332031-65.332031zm0 0" fill="#ddebf0"/><path d="m176.160156 230.832031c-3.949218 0-7.808594-1.601562-10.597656-4.390625-2.792969-2.792968-4.402344-6.660156-4.402344-10.609375 0-3.941406 1.609375-7.8125 4.402344-10.609375 2.789062-2.792968 6.660156-4.390625 10.597656-4.390625 3.949219 0 7.820313 1.597657 10.609375 4.390625 2.792969 2.796875 4.390625 6.667969 4.390625 10.609375 0 3.949219-1.597656 7.816407-4.390625 10.609375-2.789062 2.789063-6.660156 4.390625-10.609375 4.390625zm0 0" fill="#663325"/><path d="m336.832031 230.832031c-3.949219 0-7.8125-1.601562-10.601562-4.390625-2.800781-2.792968-4.398438-6.652344-4.398438-10.609375 0-3.949219 1.597657-7.8125 4.398438-10.609375 2.789062-2.792968 6.648437-4.390625 10.601562-4.390625 3.949219 0 7.808594 1.597657 10.609375 4.390625 2.789063 2.796875 4.390625 6.660156 4.390625 10.609375s-1.601562 7.816407-4.390625 10.609375c-2.800781 2.789063-6.660156 4.390625-10.609375 4.390625zm0 0" fill="#3c1b13"/><path d="m256.5 267.117188c-13.699219 21.382812-35.695312 36.957031-61.410156 42.15625l50.800781 50.800781c2.816406 2.8125 6.628906 4.394531 10.609375 4.394531 3.976562 0 7.792969-1.582031 10.605469-4.394531l50.800781-50.800781c-25.714844-5.199219-47.710938-20.773438-61.40625-42.15625zm0 0" fill="#ff9f00"/><path d="m497.496094 401.667969h-240.996094v30h240.996094c8.285156 0 15-6.71875 15-15 0-8.285157-6.714844-15-15-15zm0 0" fill="#dd3400"/><path d="m256.5 267.117188v97.351562c3.976562 0 7.792969-1.578125 10.605469-4.390625l50.800781-50.804687c-25.714844-5.199219-47.710938-20.773438-61.40625-42.15625zm0 0" fill="#f77e00"/></svg>