<svg height="511pt" viewBox="-80 0 511 511.99951" width="511pt" xmlns="http://www.w3.org/2000/svg"><path d="m81.730469 367.367188c-7.480469 19.914062-22.441407 32.859374-43.941407 32.859374-21.496093 0-37.289062-24.0625-37.289062-45.335937 0-50.84375 99.140625-129.796875 120.636719-129.796875 21.496093 0-30.152344 117.632812-39.40625 142.273438zm0 0" fill="#ab725c"/><path d="m121.136719 225.09375c-4.023438 0-10.765625 2.765625-19.070313 7.597656-17.058594 18.644532-37.828125 54.492188-50.09375 123.238282-3.558594 19.9375-15.429687 33.472656-29.519531 39.933593 4.617187 2.746094 9.785156 4.363281 15.339844 4.363281 21.496093 0 36.457031-12.949218 43.9375-32.859374 9.253906-24.640626 60.902343-142.273438 39.40625-142.273438zm0 0" fill="#9e6955"/><path d="m269.269531 367.367188c7.480469 19.914062 22.441407 32.859374 43.9375 32.859374 21.5 0 37.292969-24.0625 37.292969-45.335937 0-50.84375-99.140625-129.796875-120.636719-129.796875-21.496093 0 30.152344 117.632812 39.40625 142.273438zm0 0" fill="#9e6955"/><path d="m229.863281 225.09375c-4.167969 0-5.574219 4.433594-5.089843 11.738281 36.898437 23.886719 94.84375 79.1875 94.84375 118.058594 0 16.523437-9.535157 34.726563-23.867188 42.03125 5.222656 2.144531 11.046875 3.304687 17.457031 3.304687 21.496094 0 37.292969-24.0625 37.292969-45.335937 0-50.84375-99.140625-129.796875-120.636719-129.796875zm0 0" fill="#946250"/><path d="m175.640625 433.269531c-42.625 0-86.488281 77.804688-95.964844 26.828125-25.726562-138.390625 21.058594-277.753906 95.667969-277.753906 74.605469 0 121.738281 139.363281 96.011719 277.753906-9.476563 50.976563-53.09375-26.828125-95.714844-26.828125zm0 0" fill="#ba8068"/><path d="m175.34375 182.339844c-5.292969 0-10.441406.726562-15.441406 2.078125 65.480468 17.71875 104.46875 147.105469 80.570312 275.679687-.550781 2.957032-1.21875 5.460938-1.992187 7.589844 16.152343 11.773438 28.371093 16.636719 32.875-7.589844 25.726562-138.390625-21.40625-277.757812-96.011719-277.757812zm0 0" fill="#ab725c"/><path d="m236.234375 334.808594c0 40.679687-27.191406 53.054687-60.734375 53.054687s-60.734375-12.375-60.734375-53.054687c0-40.679688 27.191406-94.261719 60.734375-94.261719s60.734375 53.582031 60.734375 94.261719zm0 0" fill="#fbe1a8"/><path d="m103.15625 31.734375c4.175781 20.695313-3.621094 39.71875-24.53125 43.929687-20.914062 4.210938-45.507812-15.695312-45.179688-36.8125.304688-19.667968 9.140626-33.914062 30.054688-38.121093 20.910156-4.210938 35.480469 10.3125 39.65625 31.003906zm0 0" fill="#ab725c"/><path d="m247.84375 31.734375c-4.175781 20.695313 3.621094 39.71875 24.53125 43.929687 20.914062 4.210938 45.507812-15.695312 45.179688-36.8125-.304688-19.667968-9.144532-33.914062-30.054688-38.121093-20.914062-4.210938-35.480469 10.3125-39.65625 31.003906zm0 0" fill="#9e6955"/><path d="m288.222656 117.738281c0 59.738281-36.71875 102.621094-112.722656 102.621094-76.007812 0-112.722656-42.882813-112.722656-102.621094 0-59.742187 19.175781-113.71875 112.722656-113.71875s112.722656 53.976563 112.722656 113.71875zm0 0" fill="#ba8068"/><path d="m175.5 4.019531c-5.394531 0-10.53125.1875-15.441406.539063 80.242187 5.714844 97.277344 56.882812 97.277344 113.179687 0 55.539063-31.738282 96.5-97.277344 101.988281 4.957031.414063 10.097656.632813 15.441406.632813 76.003906 0 112.722656-42.882813 112.722656-102.621094 0-59.742187-19.175781-113.71875-112.722656-113.71875zm0 0" fill="#ab725c"/><path d="m137.871094 126.71875c0-20.472656 16.847656-28.335938 37.628906-28.335938 19.414062 0 37.628906 7.863282 37.628906 28.335938s-16.847656 37.070312-37.628906 37.070312-37.628906-16.597656-37.628906-37.070312zm0 0" fill="#704a3c"/><path d="m198.140625 421.785156c-10.578125 40.003906 8.203125 79.605469 41.949219 88.449219s69.675781-16.417969 80.25-56.421875c10.578125-40.007812 3.402344-76.566406-41.949219-88.453125s-69.675781 16.417969-80.25 56.425781zm0 0" fill="#ab725c"/><path d="m293.585938 428.574219c-30.503907-.464844-47.921876-10.917969-55.304688-16.757813-2.210938-1.753906-5.492188-.855468-6.445312 1.804688-5.535157 15.40625-17.433594 57.617187 13.53125 68.503906 31.453124 11.0625 47.464843-32.679688 52.085937-48.253906.773437-2.613282-1.144531-5.253906-3.867187-5.296875zm0 0" fill="#fbe1a8"/><path d="m152.859375 421.785156c10.578125 40.003906-8.203125 79.605469-41.949219 88.449219s-69.675781-16.417969-80.25-56.421875c-10.578125-40.007812-3.40625-76.566406 41.949219-88.453125 45.351563-11.886719 69.671875 16.417969 80.25 56.425781zm0 0" fill="#ab725c"/><path d="m57.410156 428.574219c30.507813-.464844 47.925782-10.917969 55.304688-16.757813 2.214844-1.753906 5.496094-.855468 6.449218 1.804688 5.535157 15.40625 17.433594 57.617187-13.53125 68.503906-31.453124 11.0625-47.464843-32.679688-52.085937-48.253906-.773437-2.613282 1.144531-5.253906 3.863281-5.296875zm0 0" fill="#fbe1a8"/></svg>