<svg height="512pt" viewBox="-33 0 512 512" width="512pt" xmlns="http://www.w3.org/2000/svg"><path d="m57.203125 129.03125v209.804688c0 91.492187 74.171875 165.664062 165.664063 165.664062 91.496093 0 165.664062-74.171875 165.664062-165.664062v-209.804688zm0 0" fill="#c95b2a"/><path d="m364.53125 129.03125v209.804688c0 88.132812-64.828125 160.183593-151.664062 165.355468 3.308593.195313 6.640624.308594 10 .308594 91.496093 0 165.664062-74.171875 165.664062-165.664062v-209.804688zm0 0" fill="#b34c1e"/><path d="m405.101562 96.332031v37.699219c0 3.316406-2.6875 6-6 6h-352.46875c-3.3125 0-6-2.683594-6-6v-37.699219c0-3.3125 2.6875-6 6-6h352.46875c3.3125 0 6 2.6875 6 6zm0 0" fill="#fdbf00"/><path d="m399.101562 90.332031h-24c3.3125 0 6 2.6875 6 6v37.699219c0 3.316406-2.6875 6-6 6h24c3.3125 0 6-2.683594 6-6v-37.699219c0-3.3125-2.6875-6-6-6zm0 0" fill="#fda400"/><path d="m316.269531 115.183594h-21.132812c-3.316407 0-6-2.6875-6-6v-58.617188h33.132812v58.617188c0 3.3125-2.6875 6-6 6zm0 0" fill="#d9e7ec"/><path d="m316.269531 115.183594h-18v-64.617188h24v58.617188c0 3.3125-2.6875 6-6 6zm0 0" fill="#aad4ec"/><path d="m438.234375 13.5v21.132812c0 3.3125-2.683594 6-6 6h-418.734375c-3.3125 0-6-2.6875-6-6v-21.132812c0-3.3125 2.6875-6 6-6h418.734375c3.316406 0 6 2.6875 6 6zm0 0" fill="#c95b2a"/><path d="m432.234375 7.5h-24c3.316406 0 6 2.6875 6 6v21.132812c0 3.3125-2.683594 6-6 6h24c3.316406 0 6-2.6875 6-6v-21.132812c0-3.3125-2.683594-6-6-6zm0 0" fill="#b34c1e"/><path d="m150.601562 115.183594h-21.132812c-3.3125 0-6-2.6875-6-6v-58.617188h33.132812v58.617188c0 3.3125-2.683593 6-6 6zm0 0" fill="#d9e7ec"/><path d="m150.601562 115.183594h-18v-64.617188h24v58.617188c0 3.3125-2.683593 6-6 6zm0 0" fill="#aad4ec"/><path d="m167.167969 57.199219h-54.261719c-3.316406 0-6-2.6875-6-6v-37.699219c0-3.3125 2.683594-6 6-6h54.261719c3.316406 0 6 2.6875 6 6v37.699219c0 3.3125-2.6875 6-6 6zm0 0" fill="#fdbf00"/><path d="m167.167969 7.5h-24c3.3125 0 6 2.6875 6 6v37.699219c0 3.3125-2.6875 6-6 6h24c3.3125 0 6-2.6875 6-6v-37.699219c0-3.3125-2.6875-6-6-6zm0 0" fill="#fda400"/><path d="m332.835938 57.199219h-54.265626c-3.3125 0-6-2.6875-6-6v-37.699219c0-3.3125 2.6875-6 6-6h54.265626c3.3125 0 6 2.6875 6 6v37.699219c0 3.3125-2.6875 6-6 6zm0 0" fill="#fdbf00"/><path d="m332.832031 7.5h-24c3.3125 0 6 2.6875 6 6v37.699219c0 3.3125-2.6875 6-6 6h24c3.316407 0 6-2.6875 6-6v-37.699219c0-3.3125-2.683593-6-6-6zm0 0" fill="#fda400"/><path d="m438.234375 0h-99.398437s0 0-.003907 0h-331.332031c-1.988281 0-3.898438.789062-5.304688 2.195312-1.40625 1.410157-2.195312 3.316407-2.195312 5.304688v33.132812c0 4.144532 3.359375 7.5 7.5 7.5h91.90625v9.066407c0 4.140625 3.355469 7.5 7.5 7.5h9.0625v18.132812h-75.335938c-4.140624 0-7.5 3.359375-7.5 7.5v49.703125c0 4.140625 3.359376 7.5 7.5 7.5h9.070313v191.300782c0 95.480468 77.679687 173.164062 173.164063 173.164062 95.484374 0 173.164062-77.683594 173.164062-173.164062v-191.300782h9.070312c4.140626 0 7.5-3.359375 7.5-7.5v-49.703125c0-4.140625-3.359374-7.5-7.5-7.5h-75.332031v-18.132812h9.0625c4.144531 0 7.5-3.359375 7.5-7.5v-9.066407h91.902344c4.140625 0 7.5-3.355468 7.5-7.5v-33.132812c0-4.140625-3.355469-7.5-7.5-7.5zm-257.566406 15h84.402343v18.132812h-84.402343zm-165.667969 18.132812v-18.132812h84.40625v18.132812zm99.40625-18.132812h51.261719v25.605469.027343.027344 9.039063h-51.261719zm58.761719 49.699219c4.144531 0 7.5-3.359375 7.5-7.5v-9.066407h84.402343v9.066407c0 4.140625 3.355469 7.5 7.5 7.5h9.066407v18.132812h-117.53125v-18.132812zm-42.199219 0h18.136719v25.613281c0 .007812-.003907.011719-.003907.019531 0 .003907.003907.011719.003907.019531v17.332032h-18.136719zm266.632812 33.132812v34.703125h-284.734374c-4.140626 0-7.5 3.355469-7.5 7.5 0 4.140625 3.359374 7.5 7.5 7.5h268.167968v191.300782c0 87.210937-70.953125 158.164062-158.167968 158.164062-87.210938 0-158.164063-70.953125-158.164063-158.164062v-191.300782h17.164063c4.144531 0 7.5-3.359375 7.5-7.5 0-4.144531-3.355469-7.5-7.5-7.5h-33.734376v-34.703125h67.835938v17.351563c0 4.140625 3.359375 7.5 7.5 7.5h33.136719c4.140625 0 7.5-3.359375 7.5-7.5v-17.351563h117.53125v17.351563c0 4.140625 3.355469 7.5 7.5 7.5h33.132812c4.140625 0 7.5-3.359375 7.5-7.5v-17.351563zm-82.832031 9.851563h-18.132812v-42.984375h18.132812zm16.5625-57.984375h-51.261719v-34.699219h51.265626v34.699219zm99.402344-16.566407h-84.402344v-18.132812h84.402344zm0 0"/><path d="m214.585938 281.628906c-4.144532 0-7.5 3.359375-7.5 7.5v99.398438c0 4.144531 3.355468 7.5 7.5 7.5 4.140624 0 7.5-3.355469 7.5-7.5v-99.398438c0-4.140625-3.359376-7.5-7.5-7.5zm0 0"/><path d="m181.449219 281.628906c-4.140625 0-7.5 3.359375-7.5 7.5v99.398438c0 4.144531 3.359375 7.5 7.5 7.5s7.5-3.355469 7.5-7.5v-99.398438c0-4.140625-3.359375-7.5-7.5-7.5zm0 0"/><path d="m247.71875 281.628906c-4.144531 0-7.5 3.359375-7.5 7.5v99.398438c0 4.144531 3.355469 7.5 7.5 7.5 4.140625 0 7.5-3.355469 7.5-7.5v-99.398438c0-4.140625-3.359375-7.5-7.5-7.5zm0 0"/><path d="m132.535156 245.726562v175.9375c0 13.269532 10.792969 24.066407 24.066406 24.066407h115.964844c13.269532 0 24.066406-10.796875 24.066406-24.066407v-33.917968h25.632813c4.144531 0 7.5-3.359375 7.5-7.5v-82.832032c0-4.140624-3.355469-7.5-7.5-7.5h-25.632813v-44.183593c9.609376-3.160157 16.566407-12.214844 16.566407-22.867188 0-13.269531-10.796875-24.066406-24.066407-24.066406h-.78125v-.785156c0-13.269531-10.796874-24.066407-24.066406-24.066407h-99.402344c-13.269531 0-24.066406 10.796876-24.066406 24.066407v.785156h-.78125c-13.269531 0-24.066406 10.796875-24.066406 24.066406-.003906 10.652344 6.957031 19.703125 16.566406 22.863281zm140.03125 185.003907h-115.964844c-5 0-9.066406-4.066407-9.066406-9.066407v-174.734374h134.097656v174.734374c0 5-4.066406 9.066407-9.066406 9.066407zm42.203125-125.816407v67.832032h-18.136719v-67.832032zm-174.734375-91.117187h8.269532.011718 16.566406c4.140626 0 7.5-3.359375 7.5-7.5 0-4.144531-3.359374-7.5-7.5-7.5h-9.066406v-.785156c0-5 4.066406-9.066407 9.066406-9.066407h99.398438c5 0 9.070312 4.066407 9.070312 9.066407v.785156h-33.917968c-4.144532 0-7.5 3.355469-7.5 7.5 0 4.140625 3.355468 7.5 7.5 7.5h41.417968.007813 8.273437c5 0 9.066407 4.066406 9.066407 9.066406 0 4.992188-4.054688 9.054688-9.046875 9.066407-.007813 0-.015625 0-.019532 0h-149.097656c-.007812 0-.015625 0-.019531 0-4.992187-.011719-9.050781-4.074219-9.050781-9.066407 0-5 4.070312-9.066406 9.070312-9.066406zm0 0"/></svg>