<svg height="469.33334pt" viewBox="0 0 469.33334 469.33334" width="469.33334pt" xmlns="http://www.w3.org/2000/svg"><path d="m469.332031 234.667969c0 129.601562-105.0625 234.664062-234.664062 234.664062-129.605469 0-234.667969-105.0625-234.667969-234.664062 0-129.605469 105.0625-234.667969 234.667969-234.667969 129.601562 0 234.664062 105.0625 234.664062 234.667969zm0 0" fill="#b4e7f0"/><path d="m469.332031 234.667969c0 129.601562-105.0625 234.664062-234.664062 234.664062-129.605469 0-234.667969-105.0625-234.667969-234.664062 0-129.605469 105.0625-234.667969 234.667969-234.667969 129.601562 0 234.664062 105.0625 234.664062 234.667969zm0 0" fill="#b4e7f0"/><path d="m400.601562 68.730469c91.640626 91.644531 91.640626 240.226562 0 331.871093-91.644531 91.640626-240.226562 91.640626-331.871093 0zm0 0" fill="#38395e"/><path d="m387.71875 81.613281c11.636719 28.25 17.621094 58.503907 17.613281 89.054688 0 129.601562-105.0625 234.664062-234.664062 234.664062-30.550781.007813-60.808594-5.976562-89.054688-17.613281l-12.882812 12.882812c91.644531 91.640626 240.226562 91.640626 331.871093 0 91.640626-91.644531 91.640626-240.226562 0-331.871093zm0 0" fill="#2b2c53"/><path d="m347.171875 122.160156c-64.980469-64.980468-157.515625-89.042968-252.523437-75.488281-9.160157 6.71875-17.820313 14.089844-25.917969 22.058594-91.640625 91.644531-91.640625 240.226562 0 331.871093 91.644531 91.640626 240.226562 91.640626 331.871093 0 7.96875-8.097656 15.339844-16.757812 22.058594-25.917968 13.554688-95.007813-10.503906-187.542969-75.488281-252.523438zm0 0" fill="#fad47f"/><path d="m400.601562 400.601562c7.96875-8.097656 15.339844-16.757812 22.058594-25.917968 13.554688-95.007813-10.503906-187.542969-75.488281-252.523438l-278.4375 278.441406c91.640625 91.640626 240.222656 91.640626 331.867187 0zm0 0" fill="#009fc2"/><path d="m357.792969 192c-18.75 0-39.398438-9.4375-55.210938-25.25l15.085938-15.082031c18.894531 18.882812 46.5 24.488281 59.164062 11.832031 13.042969-13.050781 7.730469-39.59375-11.832031-59.167969l15.082031-15.082031c28.355469 28.355469 33.5625 67.59375 11.835938 89.332031-8.773438 8.78125-20.585938 13.417969-34.125 13.417969zm0 0" fill="#0077ab"/><path d="m391.917969 178.582031-15.085938-15.082031c13.042969-13.050781 7.730469-39.59375-11.832031-59.167969l15.082031-15.082031c28.355469 28.355469 33.5625 67.59375 11.835938 89.332031zm0 0" fill="#2b2c53"/><path d="m400.601562 400.601562c7.96875-8.097656 15.339844-16.757812 22.058594-25.917968 8.535156-59.824219 2.089844-118.640625-20.03125-170.242188-16.414062 113.554688-113.859375 200.890625-231.960937 200.890625-30.550781.007813-60.804688-5.976562-89.054688-17.613281l-12.878906 12.882812c91.640625 91.640626 240.222656 91.640626 331.867187 0zm0 0" fill="#0077ab"/><path d="m100.59375 179.03125c-49.128906 49.125-75.78125 109.0625-76.011719 159.878906 22.617188 46.003906 59.835938 83.222656 105.84375 105.84375 50.816407-.234375 110.75-26.886718 159.875-76.011718 78.488281-78.488282 99.648438-184.582032 47.261719-236.96875-52.386719-52.386719-158.484375-31.230469-236.96875 47.257812zm0 0" fill="#f9578f"/><path d="m454.265625 152.410156c-23.585937-63.605468-73.738281-113.757812-137.34375-137.34375 26.003906 26.007813 24.410156 112.933594 24.410156 112.933594s86.929688-1.59375 112.933594 24.410156zm0 0" fill="#7b7c94"/><path d="m365.867188 40.457031c18.527343 27.71875 30.898437 59.082031 36.28125 91.984375 20.816406 3.410156 41.523437 9.375 52.117187 19.96875-11.671875-31.421875-29.976563-59.960937-53.664063-83.679687-10.632812-10.527344-22.265624-19.996094-34.734374-28.273438zm0 0" fill="#4a4b6c"/><path d="m40.371094 365.816406c8.296875 12.488282 17.796875 24.140625 28.359375 34.785156 18.027343 17.972657 38.863281 32.886719 61.695312 44.152344 47.339844-.21875 102.480469-23.628906 149.539063-66.511718-76.089844 40.160156-168.070313 35.386718-239.59375-12.425782zm0 0" fill="#e41a67"/><path d="m357.792969 192c-18.75 0-39.398438-9.4375-55.210938-25.25l15.085938-15.082031c11.894531 11.894531 26.894531 19 40.125 19zm0 0" fill="#e41a67"/><path d="m364.996094 104.335938c-19.601563-19.605469-46.089844-24.902344-59.160156-11.832032-13.070313 13.070313-7.773438 39.554688 11.832031 59.160156 19.605469 19.605469 46.09375 24.902344 59.164062 11.832032 13.066407-13.070313 7.769531-39.554688-11.835937-59.160156zm0 0" fill="#f3fbfd"/><path d="m382.605469 133.699219c-2.625-10.210938-8.875-20.636719-17.605469-29.367188l15.082031-15.082031c11.542969 11.542969 19.5625 25.074219 23.1875 39.136719zm0 0" fill="#4a4b6c"/><path d="m260.308594 81.023438c-31.910156-31.914063-97.917969-17.648438-147.425782 31.859374-49.507812 49.507813-63.773437 115.515626-31.859374 147.425782 31.914062 31.914062 97.917968 17.652344 147.429687-31.855469 49.507813-49.511719 63.769531-115.515625 31.855469-147.429687zm0 0" fill="#fef3dc"/><path d="m100.59375 179.03125c-13.273438 13.3125-25.234375 27.871094-35.726562 43.46875 1.402343 14.769531 6.351562 28.003906 16.15625 37.808594 31.914062 31.914062 97.917968 17.652344 147.429687-31.859375 39.800781-39.800781 56.316406-89.984375 44.878906-124.824219-53.324219-4.714844-119.390625 22.058594-172.738281 75.40625zm0 0" fill="#fcafc9"/></svg>