<?xml version="1.0" encoding="iso-8859-1"?>
<!-- Generator: Adobe Illustrator 19.0.0, SVG Export Plug-In . SVG Version: 6.00 Build 0)  -->
<svg version="1.1" id="Layer_1" xmlns="http://www.w3.org/2000/svg" xmlns:xlink="http://www.w3.org/1999/xlink" x="0px" y="0px"
	 viewBox="0 0 512.175 512.175" style="enable-background:new 0 0 512.175 512.175;" xml:space="preserve">
<g>
	<g>
		<path style="fill:#CB8252;" d="M441.467,256.087c0-5.959,0.291-11.802,0-17.655h44.138c0.618,0.018,28.319-2.101,26.483,35.416
			c-0.424,8.722-5.764,21.566-11.123,32.159c-4.97,9.807-9.101,20.012-11.935,30.632c-2.136,8.024-4.025,16.225-3.734,19.129
			c0.83,8.139,11.953,16.375,16.622,32.733c1.836,6.435,1.739,11.396,0,17.655c-3.628,13.082-14.46,35.204-42.796,35.204
			c0,0-46.945,3.972-52.409-36.131C428.561,363.228,441.467,311.754,441.467,256.087"/>
		<path style="fill:#CB8252;" d="M70.708,256.087c0-5.959-0.291-11.802,0-17.655H26.57c-0.618,0.018-28.319-2.101-26.483,35.416
			c0.424,8.722,5.764,21.566,11.123,32.159c4.97,9.807,9.101,20.012,11.935,30.632c2.136,8.024,4.025,16.225,3.734,19.129
			c-0.83,8.139-11.953,16.375-16.622,32.733c-1.836,6.435-1.739,11.396,0,17.655c3.628,13.082,14.46,35.204,42.796,35.204
			c0,0,46.945,3.972,52.409-36.131C83.614,363.228,70.708,311.754,70.708,256.087"/>
	</g>
	<path style="fill:#804537;" d="M441.555,256.087c0,141.383-82.997,256-185.379,256s-185.379-114.617-185.379-256
		s82.997-256,185.379-256S441.555,114.705,441.555,256.087"/>
	<g>
		<path style="fill:#CB8252;" d="M300.314,450.294h-88.276c-4.873,0-8.828-3.955-8.828-8.828c0-4.873,3.955-8.828,8.828-8.828
			h88.276c4.873,0,8.828,3.955,8.828,8.828C309.142,446.34,305.187,450.294,300.314,450.294"/>
		<path style="fill:#CB8252;" d="M300.314,167.812h-88.276c-4.873,0-8.828-3.955-8.828-8.828c0-4.873,3.955-8.828,8.828-8.828
			h88.276c4.873,0,8.828,3.955,8.828,8.828C309.142,163.857,305.187,167.812,300.314,167.812"/>
		<path style="fill:#CB8252;" d="M317.97,132.501H194.383c-4.873,0-8.828-3.955-8.828-8.828c0-4.873,3.955-8.828,8.828-8.828H317.97
			c4.873,0,8.828,3.955,8.828,8.828C326.797,128.546,322.842,132.501,317.97,132.501"/>
		<path style="fill:#CB8252;" d="M300.314,97.191h-88.276c-4.873,0-8.828-3.955-8.828-8.828s3.955-8.828,8.828-8.828h88.276
			c4.873,0,8.828,3.955,8.828,8.828S305.187,97.191,300.314,97.191"/>
		<path style="fill:#CB8252;" d="M282.659,61.88h-52.966c-4.873,0-8.828-3.955-8.828-8.828s3.955-8.828,8.828-8.828h52.966
			c4.873,0,8.828,3.955,8.828,8.828S287.532,61.88,282.659,61.88"/>
		<path style="fill:#CB8252;" d="M127.418,229.605l29.625,29.634c7.759,7.751,20.374,7.751,28.134,0l31.612-29.634l-31.409-29.431
			c-7.962-7.962-20.586-7.945-28.337-0.203L127.418,229.605z M171.185,282.72c-9.622,0-19.279-3.655-26.624-10.999l-35.866-35.875
			c-3.452-3.452-3.452-9.031,0-12.482l35.866-35.875c14.645-14.645,38.462-14.636,53.098,0l38.073,35.681
			c1.783,1.66,2.79,3.999,2.79,6.435s-1.006,4.776-2.79,6.435l-38.276,35.875C190.262,279.11,180.746,282.72,171.185,282.72
			L171.185,282.72z"/>
		<path style="fill:#CB8252;" d="M304.396,229.605l31.409,29.431c7.945,7.945,20.568,7.945,28.328,0.203l29.634-29.634
			l-29.634-29.634c-7.759-7.751-20.383-7.751-28.125,0L304.396,229.605z M350.061,282.703c-9.613,0-19.218-3.663-26.536-10.982
			l-38.073-35.681c-1.783-1.66-2.79-3.999-2.79-6.435s1.006-4.776,2.79-6.435l38.268-35.875
			c14.442-14.442,38.25-14.442,52.895,0.194l35.875,35.875c3.443,3.452,3.443,9.031,0,12.482l-35.875,35.875
			C369.297,279.039,359.675,282.703,350.061,282.703L350.061,282.703z"/>
		<path style="fill:#CB8252;" d="M256.177,291.437c-4.299,0-8.21,2.092-10.726,5.738c-10.452,15.139-15.757,33.986-15.757,56.02
			c0.247,1.933,3.434,26.483,26.483,26.483s26.236-24.55,26.527-27.348c-0.044-21.169-5.35-40.007-15.801-55.164
			C264.386,293.529,260.476,291.437,256.177,291.437 M256.177,397.332c-31.673,0-42.69-28.337-44.103-43.317
			c-0.035-32.812,10.231-54.404,18.847-66.878c5.773-8.36,15.219-13.356,25.256-13.356c10.037,0,19.482,4.996,25.256,13.356
			c12.35,17.902,18.882,40.739,18.882,66.057C298.867,368.996,287.85,397.332,256.177,397.332"/>
		<path style="fill:#CB8252;" d="M295.901,370.26c1.333,0.362,2.807,0.583,4.414,0.583c9.737,0,17.655-7.918,17.655-17.655
			c0-10.125-8.748-18.317-18.829-17.611c0.786,5.711,1.174,11.529,1.174,17.611C300.191,354.82,299.405,362.033,295.901,370.26
			 M300.314,388.498c-7.91,0-15.448-2.657-21.813-7.689c-3.602-2.842-4.423-7.98-1.871-11.811c5.094-7.654,6.056-16.552,6.065-16.64
			c-0.035-6.93-0.759-14.159-2.242-21.274c-0.83-3.999,1.192-8.051,4.882-9.79c4.82-2.26,9.852-3.416,14.98-3.416
			c19.474,0,35.31,15.846,35.31,35.31C335.625,372.661,319.788,388.498,300.314,388.498"/>
		<path style="fill:#CB8252;" d="M212.039,335.536c-9.737,0-17.655,7.918-17.655,17.655c0,9.737,7.918,17.655,17.655,17.655
			c1.607,0,3.072-0.221,4.405-0.583c-3.496-8.183-4.273-15.228-4.37-16.234c-0.026-0.283-0.035-0.556-0.035-0.839
			c0-6.091,0.38-11.917,1.174-17.611C212.815,335.544,212.427,335.536,212.039,335.536 M212.039,388.501
			c-19.474,0-35.31-15.837-35.31-35.31s15.837-35.31,35.31-35.31c5.12,0,10.161,1.148,14.972,3.416c3.699,1.73,5.72,5.782,4.89,9.79
			c-1.457,6.939-2.172,14.001-2.207,21.583c0.238,1.73,1.518,9.551,6.029,16.331c2.542,3.822,1.73,8.96-1.871,11.811
			C227.496,385.844,219.948,388.501,212.039,388.501"/>
	</g>
	<path id="SVGCleanerId_0" style="fill:#804537;" d="M450.294,397.329c0,4.873,3.955,8.828,8.828,8.828
		c4.873,0,8.828-3.955,8.828-8.828s-3.955-8.828-8.828-8.828C454.249,388.501,450.294,392.456,450.294,397.329"/>
	<path id="SVGCleanerId_1" style="fill:#804537;" d="M476.776,264.915c-4.873,0-8.828-3.955-8.828-8.828v-35.31
		c0-4.873,3.955-8.828,8.828-8.828c4.873,0,8.828,3.955,8.828,8.828v35.31C485.604,260.96,481.649,264.915,476.776,264.915"/>
	<g>
		<path id="SVGCleanerId_0_1_" style="fill:#804537;" d="M450.294,397.329c0,4.873,3.955,8.828,8.828,8.828
			c4.873,0,8.828-3.955,8.828-8.828s-3.955-8.828-8.828-8.828C454.249,388.501,450.294,392.456,450.294,397.329"/>
	</g>
	<g>
		<path id="SVGCleanerId_1_1_" style="fill:#804537;" d="M476.776,264.915c-4.873,0-8.828-3.955-8.828-8.828v-35.31
			c0-4.873,3.955-8.828,8.828-8.828c4.873,0,8.828,3.955,8.828,8.828v35.31C485.604,260.96,481.649,264.915,476.776,264.915"/>
	</g>
	<g>
		<path style="fill:#804537;" d="M61.88,397.329c0,4.873-3.955,8.828-8.828,8.828s-8.828-3.955-8.828-8.828s3.955-8.828,8.828-8.828
			S61.88,392.456,61.88,397.329"/>
		<path style="fill:#804537;" d="M35.397,264.915c-4.873,0-8.828-3.955-8.828-8.828v-35.31c0-4.873,3.955-8.828,8.828-8.828
			s8.828,3.955,8.828,8.828v35.31C44.224,260.96,40.27,264.915,35.397,264.915"/>
	</g>
</g>
<g>
</g>
<g>
</g>
<g>
</g>
<g>
</g>
<g>
</g>
<g>
</g>
<g>
</g>
<g>
</g>
<g>
</g>
<g>
</g>
<g>
</g>
<g>
</g>
<g>
</g>
<g>
</g>
<g>
</g>
</svg>
