<?xml version="1.0" encoding="iso-8859-1"?>
<!-- Generator: Adobe Illustrator 19.0.0, SVG Export Plug-In . SVG Version: 6.00 Build 0)  -->
<svg version="1.1" id="Capa_1" xmlns="http://www.w3.org/2000/svg" xmlns:xlink="http://www.w3.org/1999/xlink" x="0px" y="0px"
	 viewBox="0 0 371.2 371.2" style="enable-background:new 0 0 371.2 371.2;" xml:space="preserve">
<path style="fill:#D06700;" d="M320.328,168.4c16.4-11.6,20-34,8.8-50.4c-11.6-16.4-34-20-50.4-8.8l-32.8,23.2
	c-0.4-0.8-0.8-1.2-1.6-2c10.8-13.2,17.6-30,17.6-48.4c0-42-34-75.6-75.6-75.6c-42,0-75.6,34-75.6,75.6c0,18.4,6.4,35.2,17.6,48.4
	c-0.4,0.8-1.2,1.2-1.6,2l-33.6-22.8c-16.4-11.6-38.8-7.6-50.4,8.8c-11.6,16.4-7.6,38.8,8.8,50.4c0,0,54,27.2,62.8,44.4
	c5.2,10.4,6,36.8,0,46.8c-9.2,14.8-57.6,39.6-57.6,39.6c-16.4,11.2-20.4,33.6-9.2,50s33.6,20.4,50,9.2l38.4-26.4
	c14.8-14.8,83.2-9.6,95.6,2.8l34.4,23.6c16.4,11.2,38.8,7.2,50-9.2c11.2-16.4,7.2-38.8-9.2-50c0,0-43.2-21.2-50.4-34.8
	c-6-11.6-6-40.4,0-51.6C266.328,195.6,320.328,168.4,320.328,168.4z"/>
<path style="fill:#F7B600;" d="M199.528,166.4c0,7.6-6,13.6-13.6,13.6l0,0c-7.6,0-13.6-6-13.6-13.6l0,0c0-7.6,6-13.6,13.6-13.6l0,0
	C193.528,152.8,199.528,158.8,199.528,166.4L199.528,166.4z"/>
<path style="fill:#D81500;" d="M199.528,218.8c0,7.6-6,13.6-13.6,13.6l0,0c-7.6,0-13.6-6-13.6-13.6l0,0c0-7.6,6-13.6,13.6-13.6l0,0
	C193.528,205.2,199.528,211.2,199.528,218.8L199.528,218.8z"/>
<path style="fill:#F7B600;" d="M199.528,271.6c0,7.6-6,13.6-13.6,13.6l0,0c-7.6,0-13.6-6-13.6-13.6l0,0c0-7.6,6-13.6,13.6-13.6l0,0
	C193.528,257.6,199.528,264,199.528,271.6L199.528,271.6z"/>
<g>
	<path style="fill:#482200;" d="M299.528,96.4c-8.8,0-17.2,2.8-24.4,7.6l-12.8,9.2c4-9.6,6-20.4,6-30.8c0-45.2-36.8-82.4-82.4-82.4
		c-45.2,0-82.4,36.8-82.4,82.4c0,10.8,2,21.2,6,30.8l-12.8-9.2c-7.2-5.2-15.6-7.6-24.4-7.6c-14,0-26.8,6.8-34.8,18
		c-6.4,9.2-9.2,20.4-7.2,31.6s8,20.8,17.6,27.6c0.4,0,0.4,0.4,0.8,0.4c20,10,54.4,30.4,60,41.6c4.8,9.2,4.8,32.8,0.4,40.4
		c-6,9.6-36.8,28-54.8,37.2c-0.4,0-0.4,0.4-0.8,0.4c-19.2,13.2-24.4,40-10.8,59.2c8,11.6,21.2,18.4,35.2,18.4c8.8,0,16.8-2.4,24-7.6
		l38.4-26.4c0.4-0.4,0.8-0.4,0.8-0.8c3.2-3.2,14.8-7.2,35.6-7.2c24,0,46.4,5.2,50.8,10c0.4,0.4,0.4,0.4,0.8,0.8l34.4,23.6
		c7.2,4.8,15.6,7.6,24,7.6l0,0c14,0,27.2-6.8,35.2-18.4c13.2-19.2,8.4-46-10.8-59.2c-0.4,0-0.4-0.4-0.8-0.4
		c-17.2-8.4-43.2-23.6-47.6-32c-5.2-9.6-5.2-36,0-45.6c5.6-11.2,40-31.2,60-41.6c0.4,0,0.4-0.4,0.8-0.4c19.2-13.6,23.6-40,10.4-59.2
		C326.328,103.2,313.128,96.4,299.528,96.4z M48.328,122c5.6-8,14.4-12.4,24.4-12.4c3.2,0,6,0.4,8.8,1.6c0.8,6.4,2,22-6,34
		c-5.2,7.6-13.2,12.4-24,14.8c-4-4.4-7.2-9.6-8-15.6C41.928,136.4,43.928,128.4,48.328,122z M77.528,358c-9.6,0-18.8-4.8-24.4-12.8
		c-9.2-13.2-6-31.6,7.2-40.8h0.4c4.8,0.8,22,4.8,31.6,18c5.6,7.6,7.6,16.8,6.4,27.6l-4.4,2.8C89.528,356.4,83.528,358,77.528,358z
		 M311.528,345.2c-5.6,8-14.8,12.8-24.4,12.8l0,0c-6,0-11.6-2-16.8-5.2l-3.6-2.4c-1.6-11.2,0.8-20.4,6-28c9.2-12.4,26-16.8,31.2-18
		c0,0,0,0,0.4,0C317.528,314,320.728,332,311.528,345.2z M251.528,209.6c-6.8,13.2-6.8,44.4,0,57.6c4.8,9.6,22.4,20.8,36.4,28.4
		c-8.4,3.6-18.4,9.2-25.2,18.8c-5.6,7.6-8.8,16.8-9.2,26.8l-17.2-11.6c-10-9.2-37.6-13.2-59.6-13.2c-15.2,0-34.8,2-44.4,10.4
		l-20.4,14c-0.4-10-3.6-18.8-9.2-26.4c-7.2-10-17.6-15.6-26-19.2c15.6-8.8,36.8-22.4,43.2-32.8c7.6-12,6.4-41.2,0.4-53.2
		c-7.2-13.6-37.2-31.6-54.4-41.2c8.4-3.6,15.2-9.2,20.4-16.4c7.2-11.2,8.8-24,8.8-33.6l27.2,19.2c1.6,1.2,3.2,1.2,4.8,1.2
		c1.6-0.4,3.2-1.2,4-2.8c0-0.4,0.4-0.4,0.4-0.8l0.8-1.2c1.6-2.4,1.6-5.6-0.4-8c-10.4-12.4-16-28-16-44.4c0-38.4,31.2-69.2,69.2-69.2
		c38.4,0,69.2,31.2,69.2,69.2c0,16-5.6,32-16,44.4c-2,2.4-2,5.6-0.4,8l0.8,1.2c0,0.4,0.4,0.4,0.4,0.8c0.8,1.6,2.4,2.4,4,2.8
		s3.6,0,4.8-1.2l26.4-18.4c0,9.2,2,21.6,9.6,32.4c5.2,7.6,12,12.8,20.8,16.8C289.128,178,258.728,196,251.528,209.6z M320.728,159.6
		c-11.2-2.4-19.6-7.2-24.8-14.8c-8.4-12.4-7.2-28-6.8-33.2c3.2-1.2,6.8-2,10.4-2c9.6,0,18.8,4.8,24.4,12.4
		C331.928,133.6,330.328,149.6,320.728,159.6z"/>
	<circle style="fill:#482200;" cx="159.128" cy="74.8" r="13.6"/>
	<circle style="fill:#482200;" cx="212.328" cy="74.8" r="13.6"/>
	<path style="fill:#482200;" d="M208.728,95.2c-3.6,0-6.4,2.8-6.4,6.4c0,9.2-7.2,16.4-16.4,16.4c-9.2,0-16.4-7.6-16.4-16.4
		c0-3.6-2.8-6.4-6.4-6.4c-3.6,0-6.4,2.8-6.4,6.4c0,16.4,13.2,29.6,29.6,29.6s29.6-13.2,29.6-29.6
		C215.528,98,212.328,95.2,208.728,95.2z"/>
</g>
<g>
</g>
<g>
</g>
<g>
</g>
<g>
</g>
<g>
</g>
<g>
</g>
<g>
</g>
<g>
</g>
<g>
</g>
<g>
</g>
<g>
</g>
<g>
</g>
<g>
</g>
<g>
</g>
<g>
</g>
</svg>
