<svg height="512pt" viewBox="-68 0 511 512" width="512pt" xmlns="http://www.w3.org/2000/svg"><path d="m188.472656 99.828125c-4.207031 0-7.617187-3.410156-7.617187-7.617187v-84.59375c0-4.207032 3.410156-7.617188 7.617187-7.617188 4.207032 0 7.617188 3.410156 7.617188 7.617188v84.59375c0 4.207031-3.410156 7.617187-7.617188 7.617187zm0 0" fill="#db8a00"/><path d="m232.324219 41.503906h-51.46875v-41.503906h51.46875c2.933593 0 5.3125 2.378906 5.3125 5.3125v30.878906c0 2.933594-2.378907 5.3125-5.3125 5.3125zm0 0" fill="#5290d9"/><path d="m188.472656 69.945312-187.972656 145.019532v19.195312h375.898438v-19.195312zm0 0" fill="#f39d0a"/><path d="m188.46875 69.945312-8.765625 6.765626 177.875 138.257812v18.792969h18.789063v-18.792969zm0 0" fill="#db8a00"/><path d="m.5 215.222656h375.894531v296.773438h-375.894531zm0 0" fill="#706f6f"/><path d="m251.113281 215.222656s-3.984375 221.574219 125.28125 296.773438v-296.773438zm0 0" fill="#f9c57e"/><path d="m376.398438 215.226562v296.773438c-93.996094-74.140625-87.40625-296.773438-87.40625-296.773438zm0 0" fill="#f7b85d"/><path d="m313.707031 215.222656s-1.996093 221.574219 62.6875 296.773438v-296.773438zm0 0" fill="#f39d0a"/><path d="m376.398438 215.226562v296.773438c-7.027344-8.175781-13.273438-18.078125-18.820313-29.238281v-267.535157zm0 0" fill="#db8a00"/><path d="m125.785156 215.222656s3.984375 221.574219-125.28125 296.773438v-296.773438zm0 0" fill="#f9c57e"/><path d="m63.191406 215.222656s1.996094 221.574219-62.6875 296.773438v-296.773438zm0 0" fill="#f39d0a"/><g fill="#5290d9"><path d="m37.394531 286.195312h-11.09375c-14.25 0-25.800781-11.550781-25.800781-25.800781v-45.167969h62.695312v45.167969c0 14.246094-11.550781 25.800781-25.800781 25.800781zm0 0"/><path d="m162.675781 286.195312h-11.09375c-14.25 0-25.800781-11.550781-25.800781-25.800781v-45.167969h62.695312v45.167969c-.003906 14.246094-11.554687 25.800781-25.800781 25.800781zm0 0"/><path d="m287.953125 286.195312h-11.09375c-14.25 0-25.800781-11.550781-25.800781-25.800781v-45.167969h62.695312v45.167969c0 14.246094-11.550781 25.800781-25.800781 25.800781zm0 0"/></g><path d="m100.035156 286.195312h-11.09375c-14.25 0-25.800781-11.550781-25.800781-25.800781v-45.167969h62.695313v45.167969c0 14.246094-11.554688 25.800781-25.800782 25.800781zm0 0" fill="#efe2dd"/><path d="m225.3125 286.195312h-11.09375c-14.246094 0-25.796875-11.550781-25.796875-25.800781v-45.167969h62.691406v45.167969c0 14.246094-11.550781 25.800781-25.800781 25.800781zm0 0" fill="#efe2dd"/><path d="m350.59375 286.195312h-11.09375c-14.25 0-25.800781-11.550781-25.800781-25.800781v-45.167969h62.695312v45.167969c0 14.246094-11.550781 25.800781-25.800781 25.800781zm0 0" fill="#efe2dd"/><path d="m376.398438 215.226562v45.164063c0 14.25-11.558594 25.804687-25.808594 25.804687h-11.089844c-.621094 0-1.238281-.019531-1.859375-.070312 11.152344-.84375 19.9375-10.164062 19.9375-21.539062v-49.359376zm0 0" fill="#e1d3ce"/><path d="m313.753906 215.226562v45.164063c0 14.25-11.558594 25.804687-25.808594 25.804687h-11.089843c-.621094 0-1.238281-.019531-1.859375-.070312 11.152344-.84375 19.9375-10.164062 19.9375-21.539062v-49.359376zm0 0" fill="#0573cf"/><path d="m251.113281 215.226562v45.164063c0 14.25-11.558593 25.804687-25.804687 25.804687h-11.09375c-.617188 0-1.238282-.019531-1.859375-.070312 11.152343-.84375 19.9375-10.164062 19.9375-21.539062v-49.359376zm0 0" fill="#e1d3ce"/><path d="m188.472656 215.226562v45.164063c0 14.25-11.558594 25.804687-25.804687 25.804687h-11.09375c-.617188 0-1.238281-.019531-1.855469-.070312 11.148438-.84375 19.933594-10.164062 19.933594-21.539062v-49.359376zm0 0" fill="#0573cf"/><path d="m125.835938 215.226562v45.164063c0 14.25-11.558594 25.804687-25.808594 25.804687h-11.089844c-.621094 0-1.242188-.019531-1.859375-.070312 11.152344-.84375 19.9375-10.164062 19.9375-21.539062v-49.359376zm0 0" fill="#e1d3ce"/><path d="m63.195312 215.226562v45.164063c0 14.25-11.558593 25.804687-25.808593 25.804687h-11.089844c-.621094 0-1.238281-.019531-1.859375-.070312 11.152344-.84375 19.9375-10.164062 19.9375-21.539062v-49.359376zm0 0" fill="#0573cf"/></svg>